<svg width="512" height="512" viewBox="0 0 512 512" fill="none" xmlns="http://www.w3.org/2000/svg">
<style>
    .md-logo {
        fill: black;
    }
    @media (prefers-color-scheme: dark) {
      .md-logo {
        fill: #FEFEFE;
        }
    }
    
</style>
<path class="md-logo" fill-rule="evenodd" clip-rule="evenodd" d="M0.364284 241.296C7.45383 97.732 135.066 -14.9835 279.22 1.6272C429.282 18.2379 511.993 127.394 511.993 251.974C513.175 431.132 364.294 516.559 247.317 511.813C90.1652 505.88 -6.72526 376.554 0.364284 241.296ZM276.437 87.4964C244.585 138.987 227.63 198.153 227.63 258.629C227.63 319.464 244.787 378.973 277.005 430.677C273.04 430.98 269.05 431.132 265.041 431.132C156.334 431.132 91.3467 364.689 91.3467 260.279C88.9835 151.123 164.605 82.3077 262.677 87.0536C267.314 86.9939 271.904 87.1445 276.437 87.4964Z"/>
</svg>
