<svg width="100%" height="100%" viewBox="0 0 1620 1080" fill="none" xmlns="http://www.w3.org/2000/svg">
<g clip-path="url(#clip0_1615_5044)">
<rect x="132" y="183" width="1374" height="925" rx="50" fill="#E0E3F4"/>
<path d="M1620 1080C1620 805.212 1599.28 711.977 1559.03 614.906C1518.77 517.836 1459.77 429.635 1385.39 355.34C1311.01 281.045 1222.71 222.111 1125.53 181.903C1028.35 141.695 924.189 121 819 121C713.811 121 609.652 141.695 512.471 181.903C415.289 222.111 326.987 281.045 252.607 355.34C178.228 429.635 119.226 517.836 78.9725 614.907C38.7185 711.978 18 805.212 18 1080L819 1080H1620Z" fill="#E2D1F9"/>
<path d="M1407 1080C1407 867.677 1398.25 795.636 1368.37 720.632C1338.48 645.627 1294.68 577.476 1239.47 520.07C1184.25 462.664 1118.7 417.126 1046.56 386.058C974.412 354.99 897.088 339 819 339C740.912 339 663.588 354.99 591.444 386.058C519.3 417.126 453.749 462.664 398.532 520.07C343.315 577.476 299.515 645.627 269.632 720.632C239.749 795.636 231 867.677 231 1080L819 1080H1407Z" fill="#475ABA"/>
<path d="M1196.78 1080C1196.78 927.563 1200.06 875.841 1181.2 821.992C1162.33 768.142 1134.68 719.213 1099.82 677.999C1064.96 636.784 1023.57 604.091 978.028 581.786C932.482 559.48 868.234 548 818.935 548C769.636 548 706.374 559.48 660.828 581.786C615.281 604.091 573.897 636.784 539.038 677.999C504.178 719.213 476.526 768.142 457.66 821.992C438.794 875.841 441.088 927.563 441.088 1080L818.935 1080H1196.78Z" fill="url(#paint0_linear_1615_5044)"/>
</g>
<defs>
<linearGradient id="paint0_linear_1615_5044" x1="819" y1="548" x2="819" y2="1080" gradientUnits="userSpaceOnUse">
<stop stop-color="#F46036"/>
<stop offset="1" stop-color="#F46036" stop-opacity="0.4"/>
</linearGradient>
<clipPath id="clip0_1615_5044">
<rect width="1620" height="1080" fill="white"/>
</clipPath>
</defs>
</svg>
