<svg width="100%" height="100%" viewBox="0 0 1620 1080" fill="none" xmlns="http://www.w3.org/2000/svg">
<g clip-path="url(#clip0_1615_5041)">
<rect x="75" width="1470" height="1080" rx="50" fill="#FFF5F2"/>
<path d="M1604.14 575.065C1617.04 586.706 1633.59 596.892 1640.25 600.53V1141H-20.25V612.354C-5.39438 607.2 29.3883 592.163 49.6739 573.246C75.0309 549.599 114.987 540.504 129.587 541.413C144.186 542.323 175.691 543.232 204.89 569.608C234.089 595.983 267.129 612.354 286.339 615.082C305.549 617.811 347.042 619.63 386.231 583.25C425.419 546.87 457.691 543.232 470.754 541.413C483.817 539.594 522.236 539.594 549.899 565.969C577.561 592.345 604.455 607.806 627.506 613.263C650.558 618.72 688.978 619.629 724.324 591.435C759.67 563.241 780.417 543.232 818.836 541.413C857.256 539.594 868.014 546.87 918.728 583.25C969.442 619.63 987.115 616.901 1014.01 615.082C1040.9 613.263 1061.65 597.802 1087.77 577.793C1113.9 557.784 1138.64 546.61 1138.64 546.61C1138.64 546.61 1181.69 528.452 1221.48 552.327C1240.76 563.898 1266.81 588.707 1299.08 604.168C1331.36 619.63 1345.96 618.72 1379 610.535C1412.04 602.349 1442 571.427 1448.15 567.789C1454.3 564.151 1465.82 548.689 1509.62 542.323C1553.42 535.956 1588 560.513 1604.14 575.065Z" fill="url(#paint0_linear_1615_5041)" stroke="#F46036" stroke-width="20"/>
<path d="M1074.17 926.035C1038.44 960.597 1002.59 978 966.628 978C930.67 978 894.814 960.597 859.091 926.035C823.857 891.945 788.755 875.023 753.757 875.023C718.759 875.023 683.657 891.945 648.423 926.035C612.7 960.597 576.845 978 540.886 978C504.927 978 469.072 960.597 433.349 926.035C398.115 891.945 363.013 875.023 328.015 875.023C293.017 875.023 257.915 891.945 222.681 926.035C186.958 960.597 151.102 978 115.144 978C79.1846 978 43.329 960.597 7.60629 926.035C-27.628 891.945 -62.7296 875.023 -97.7278 875.023C-132.726 875.023 -167.828 891.945 -203.062 926.035C-238.785 960.597 -274.64 978 -310.599 978C-346.558 978 -382.413 960.597 -418.136 926.035C-453.371 891.945 -488.472 875.023 -523.47 875.023C-558.469 875.023 -593.57 891.945 -628.804 926.035C-664.527 960.597 -700.383 978 -736.342 978C-772.3 978 -808.156 960.597 -843.879 926.035C-879.113 891.945 -914.215 875.023 -949.213 875.023C-984.211 875.023 -1019.31 891.945 -1054.55 926.035L-1056.75 921.965C-1021.03 887.403 -985.172 870 -949.213 870C-913.254 870 -877.398 887.403 -841.676 921.965C-806.441 956.055 -771.34 972.977 -736.342 972.977C-701.343 972.977 -666.242 956.055 -631.007 921.965C-595.285 887.403 -559.429 870 -523.47 870C-487.511 870 -451.656 887.403 -415.933 921.965C-380.699 956.055 -345.597 972.977 -310.599 972.977C-275.601 972.977 -240.499 956.055 -205.265 921.965C-169.542 887.403 -133.687 870 -97.7278 870C-61.7689 870 -25.9133 887.403 9.80942 921.965C45.0438 956.055 80.1453 972.977 115.144 972.977C150.142 972.977 185.243 956.055 220.478 921.965C256.2 887.403 292.056 870 328.015 870C363.974 870 399.829 887.403 435.552 921.965C470.786 956.055 505.888 972.977 540.886 972.977C575.884 972.977 610.986 956.055 646.22 921.965C681.943 887.403 717.798 870 753.757 870C789.716 870 825.572 887.403 861.294 921.965C896.529 956.055 931.63 972.977 966.628 972.977C1001.63 972.977 1036.73 956.055 1071.96 921.965C1107.65 887.404 1143.48 870 1179.41 870C1215.33 870 1251.16 887.404 1286.85 921.966C1322.05 956.055 1357.12 972.977 1392.09 972.977C1427.06 972.977 1462.13 956.055 1497.33 921.966C1533.02 887.404 1568.84 870 1604.77 870C1640.7 870 1676.53 887.404 1712.22 921.966C1747.42 956.055 1782.49 972.977 1817.46 972.977C1852.42 972.977 1887.49 956.055 1922.7 921.966C1958.39 887.404 1994.21 870 2030.14 870C2066.07 870 2101.89 887.404 2137.58 921.966C2172.79 956.055 2207.86 972.977 2242.82 972.977C2277.79 972.977 2312.86 956.055 2348.06 921.966C2383.75 887.404 2419.58 870 2455.51 870C2491.43 870 2527.26 887.404 2562.95 921.966C2598.15 956.055 2633.22 972.977 2668.19 972.977C2703.16 972.977 2738.23 956.055 2773.43 921.966C2809.12 887.404 2844.94 870 2880.87 870C2916.8 870 2952.63 887.404 2988.32 921.966C3023.52 956.055 3058.59 972.977 3093.56 972.977C3128.52 972.977 3163.59 956.055 3198.8 921.966L3201 926.034C3165.31 960.596 3129.48 978 3093.56 978C3057.63 978 3021.8 960.596 2986.11 926.034C2950.91 891.945 2915.84 875.023 2880.87 875.023C2845.91 875.023 2810.84 891.945 2775.63 926.034C2739.94 960.596 2704.12 978 2668.19 978C2632.26 978 2596.44 960.596 2560.75 926.034C2525.54 891.945 2490.47 875.023 2455.51 875.023C2420.54 875.023 2385.47 891.945 2350.27 926.034C2314.58 960.596 2278.75 978 2242.82 978C2206.89 978 2171.07 960.596 2135.38 926.034C2100.18 891.945 2065.11 875.023 2030.14 875.023C1995.17 875.023 1960.1 891.945 1924.9 926.034C1889.21 960.596 1853.38 978 1817.46 978C1781.53 978 1745.7 960.596 1710.01 926.034C1674.81 891.945 1639.74 875.023 1604.77 875.023C1569.81 875.023 1534.74 891.945 1499.53 926.034C1463.84 960.596 1428.02 978 1392.09 978C1356.16 978 1320.34 960.596 1284.65 926.034C1249.44 891.945 1214.37 875.023 1179.41 875.023C1144.44 875.023 1109.37 891.946 1074.17 926.035ZM1074.17 926.035L1073.06 924" stroke="white" stroke-width="6"/>
<path d="M-1772 749C-1681.82 689 -1591.63 689 -1501.45 749C-1411.27 809 -1321.08 809 -1230.9 749C-1140.72 689 -1050.53 689 -960.35 749C-870.167 809 -779.983 809 -689.8 749C-599.617 689 -509.433 689 -419.25 749C-329.067 809 -238.883 809 -148.7 749C-58.5166 689 31.6667 689 121.85 749C212.033 809 302.217 809 392.4 749C482.583 689 572.767 689 662.95 749C753.133 809 843.317 809 933.5 749C1023.68 689 1113.87 689 1204.05 749C1294.23 809 1384.42 809 1474.6 749C1564.78 689 1654.97 689 1745.15 749C1835.33 809 1925.52 809 2015.7 749C2105.88 689 2196.07 689 2286.25 749C2376.43 809 2466.62 809 2556.8 749C2646.98 689 2737.17 689 2827.35 749C2917.53 809 3007.72 809 3097.9 749C3188.08 689 3278.27 689 3368.45 749C3458.63 809 3548.82 809 3639 749" stroke="white" stroke-width="4.5"/>
</g>
<defs>
<linearGradient id="paint0_linear_1615_5041" x1="810" y1="540.735" x2="810.352" y2="1107.35" gradientUnits="userSpaceOnUse">
<stop stop-color="#E2D1F9" stop-opacity="0.5"/>
<stop offset="1" stop-color="#E2D1F9"/>
</linearGradient>
<clipPath id="clip0_1615_5041">
<rect width="1620" height="1080" fill="white"/>
</clipPath>
</defs>
</svg>
