<svg width="100%" height="100%" viewBox="0 0 1080 1080" fill="none" xmlns="http://www.w3.org/2000/svg">
<rect x="166" y="78" width="748" height="924" rx="50" fill="#FFF5F2"/>
<path d="M540 219C184.286 219 42 540.035 42 540.035C42 540.035 184.286 861 540 861C895.714 861 1038 540.035 1038 540.035C1038 540.035 895.714 219 540 219Z" fill="#C79EFE"/>
<mask id="mask0_1611_5022" style="mask-type:alpha" maskUnits="userSpaceOnUse" x="166" y="78" width="748" height="924">
<rect x="166" y="78.0005" width="748" height="924" fill="#A3ACDD"/>
</mask>
<g mask="url(#mask0_1611_5022)">
<path d="M539.984 219.549C183.952 219.549 41.5396 540.012 41.5396 540.012C41.5396 540.012 183.952 860.406 539.984 860.406C896.015 860.406 1038.43 540.012 1038.43 540.012C1038.43 540.012 896.015 219.549 539.984 219.549Z" fill="#F46036"/>
<path d="M539.525 717.54C637.84 717.54 717.54 637.84 717.54 539.525C717.54 441.209 637.84 361.509 539.525 361.509C441.209 361.509 361.509 441.209 361.509 539.525C361.509 637.84 441.209 717.54 539.525 717.54Z" fill="#E0E3F4"/>
</g>
</svg>
