<svg width="100%" height="100%" viewBox="0 0 1080 1080" fill="none" xmlns="http://www.w3.org/2000/svg">
<rect y="51" width="803" height="803" rx="50" fill="#E2D1F9"/>
<rect x="121" y="183" width="844" height="845" rx="50" fill="#FFF5F2"/>
<path d="M541 924C718.283 924 862 780.507 862 603.5C862 426.493 718.283 283 541 283C363.717 283 220 426.493 220 603.5C220 780.507 363.717 924 541 924Z" fill="#A3ACDD"/>
<path d="M548.512 923.916C607.201 922.555 664.393 905.153 713.868 873.602C763.342 842.052 803.205 797.56 829.12 744.967L829.114 744.964L647.594 633.495C644.412 631.541 640.855 630.274 637.153 629.776L560.853 619.507C555.124 618.735 549.299 619.838 544.25 622.65C539.201 625.462 535.2 629.831 532.847 635.103L487.041 737.725C484.911 742.497 484.23 747.788 485.081 752.943C485.933 758.099 488.28 762.891 491.833 766.728L554.695 834.616C557.545 837.693 559.629 841.397 560.78 845.428C561.93 849.459 562.114 853.704 561.316 857.819L548.512 923.91L548.512 923.916Z" fill="#F46036"/>
<path d="M325.318 366.116L297.57 432.861C294.903 439.156 295.168 447.868 297.57 454.269L335.409 555.016C336.982 559.208 340.843 564.684 344.238 567.609C347.633 570.534 353.097 573.595 357.481 574.535L375.77 578.943L403.692 509.216C405.736 504.373 409.164 500.239 413.55 497.333C417.935 494.426 423.081 492.876 428.344 492.876H499.718C504.241 492.876 508.69 491.731 512.65 489.548L553.583 466.978C555.385 465.984 557.067 464.786 558.594 463.407L648.577 382.155C653.066 378.102 656.046 372.648 657.029 366.685C658.013 360.723 656.942 354.603 653.991 349.327L622.782 293.512L622.786 293.496C572.128 280.237 518.995 279.529 468.001 291.434C417.007 303.338 365.049 329.595 325.318 366.116Z" fill="#F46036"/>
<path d="M541 924.148C543.511 924.148 546.015 924.119 548.512 924.062L548.512 924.058L561.316 857.967C562.114 853.852 561.93 849.607 560.779 845.576C559.629 841.545 557.545 837.841 554.695 834.763L491.833 766.875C488.28 763.039 485.933 758.246 485.081 753.091C484.229 747.936 484.911 742.645 487.041 737.872L528.346 645.334H484.63C479.097 645.334 473.675 643.777 468.987 640.842C464.299 637.908 460.533 633.714 458.122 628.741L445.397 602.493C443.804 599.207 441.482 596.327 438.606 594.072C435.731 591.817 432.379 590.246 428.804 589.479L357.148 574.102C352.321 573.066 347.832 570.835 344.095 567.615C340.357 564.394 337.49 560.287 335.758 555.671L297.335 453.284C294.691 446.237 294.853 438.445 297.789 431.514L325.489 366.116C260.696 424.755 220 509.456 220 603.648C220 780.655 363.717 924.148 541 924.148Z" fill="#E0E3F4"/>
</svg>
