<svg width="100%" height="100%" viewBox="0 0 1080 1080" fill="none" xmlns="http://www.w3.org/2000/svg">
<rect x="328" y="116" width="687" height="686" rx="50" fill="#A3ACDD"/>
<rect y="423" width="657" height="657" rx="50" fill="#E2D1F9"/>
<path d="M398.626 780.839C357.046 905.579 190.725 905.579 190.725 905.579C190.725 905.579 190.725 739.259 315.466 697.679" fill="#F46036"/>
<path d="M772.846 489.778L523.366 739.259L357.046 572.938L606.526 323.458C700.994 228.99 795.461 229.912 835.749 235.923C841.952 236.847 847.694 239.74 852.129 244.175C856.564 248.61 859.457 254.352 860.381 260.555C866.392 300.843 867.314 395.31 772.846 489.778Z" fill="#FFF5F2"/>
<path d="M731.266 531.362V768.664C731.266 772.525 730.506 776.348 729.028 779.916C727.551 783.483 725.385 786.724 722.655 789.454L603.793 908.316C600.03 912.079 595.316 914.751 590.154 916.045C584.992 917.339 579.576 917.208 574.482 915.666C569.389 914.124 564.81 911.229 561.233 907.288C557.656 903.348 555.216 898.511 554.172 893.293L523.366 739.263" fill="#2F3C7E"/>
<path d="M564.945 365.032H327.644C323.783 365.032 319.959 365.792 316.392 367.27C312.825 368.747 309.584 370.913 306.854 373.643L187.991 492.505C184.228 496.268 181.557 500.982 180.263 506.144C178.968 511.306 179.099 516.722 180.641 521.816C182.184 526.909 185.079 531.488 189.019 535.065C192.96 538.642 197.797 541.082 203.015 542.126L357.045 572.932" fill="#2F3C7E"/>
</svg>
